<?xml version="1.0" encoding="UTF-8"?>
<svg width="20px" height="20px" viewBox="0 0 20 20" version="1.1" xmlns="http://www.w3.org/2000/svg" xmlns:xlink="http://www.w3.org/1999/xlink">
    <title>编组</title>
    <defs>
        <filter color-interpolation-filters="auto" id="filter-1">
            <feColorMatrix in="SourceGraphic" type="matrix" values="0 0 0 0 0.847000 0 0 0 0 0.847000 0 0 0 0 0.847000 0 0 0 1.000000 0"></feColorMatrix>
        </filter>
    </defs>
    <g id="页面-1" stroke="none" stroke-width="1" fill="none" fill-rule="evenodd">
        <g id="画板" transform="translate(-1174.000000, -489.000000)">
            <g id="编组" transform="translate(1160.000000, 320.000000)" filter="url(#filter-1)">
                <g transform="translate(14.000000, 169.000000)">
                    <rect id="矩形" x="0" y="0" width="20" height="20"></rect>
                    <path d="M11.2201083,8.70475916 C9.33207089,8.70158125 5.33812041,8.71429258 5.33812041,8.71429258 C5.3335278,7.21968625 5.21507672,4.53842412 6.31318931,3.21991846 C7.44083181,1.86595625 8.03876989,1.5365442 10.0004856,1.40545393 C11.9622013,1.27436367 14.004872,2.97659762 14.767693,4.90025721 C14.98991,5.45511629 15.4118767,5.85699791 15.8363971,5.77775242 C16.5326287,5.64778646 16.4443043,4.9024718 16.2233852,4.34761271 C15.1213357,1.57041207 13.0540662,0 10.0004857,0 C7.92512923,0 7.02562041,0.441726934 5.55599604,1.7390158 C3.53345837,3.52438063 3.77321823,7.02745 3.77798555,8.69522545 L3.11695051,8.71429287 C2.49909592,8.71429287 2,9.19781396 2,9.7922483 L2,18.9199694 C2,19.5178217 2.50006936,20 3.11695051,20 L16.8830475,20 C17.5001283,20 18,19.5176264 18,18.9199694 L18,9.7922483 C18.0011711,9.19676416 17.5013014,8.71429287 16.8842205,8.71429287 C16.8842205,8.71429287 13.1081457,8.70793705 11.2201083,8.70475916 Z" id="路径" fill="#000000" fill-rule="nonzero"></path>
                </g>
            </g>
        </g>
    </g>
</svg>