<?xml version="1.0" encoding="UTF-8"?>
<svg width="20px" height="20px" viewBox="0 0 20 20" version="1.1" xmlns="http://www.w3.org/2000/svg" xmlns:xlink="http://www.w3.org/1999/xlink">
    <title>编组</title>
    <defs>
        <filter color-interpolation-filters="auto" id="filter-1">
            <feColorMatrix in="SourceGraphic" type="matrix" values="0 0 0 0 0.847000 0 0 0 0 0.847000 0 0 0 0 0.847000 0 0 0 1.000000 0"></feColorMatrix>
        </filter>
    </defs>
    <g id="页面-1" stroke="none" stroke-width="1" fill="none" fill-rule="evenodd">
        <g id="画板备份-3" transform="translate(-1176.000000, -633.000000)">
            <g id="编组" transform="translate(1160.000000, 310.000000)">
                <g transform="translate(16.000000, 323.000000)">
                    <rect id="矩形" x="0" y="0" width="20" height="20"></rect>
                    <g filter="url(#filter-1)">
                        <g transform="translate(3.000000, 0.000000)">
                            <path d="M12.3674912,-5.88457434e-16 L1.76678445,-5.88457434e-16 C0.777385145,-5.88457434e-16 0,0.777385166 0,1.76678445 L0,18.1625442 C0,19.1519435 0.777385166,20 1.83745584,20 L6.28975266,20 L8.69257951,20 L12.3674912,20 C13.3568905,20 14.204947,19.2226148 14.204947,18.1625442 L14.204947,1.76678445 C14.204947,0.777385166 13.4275618,-5.88457434e-16 12.3674912,-5.88457434e-16 Z M5.37102473,1.27208481 L8.90459364,1.27208481 C9.04593641,1.27208481 9.18727915,1.41342757 9.18727915,1.55477031 C9.18727915,1.69611305 9.04593639,1.83745582 8.90459364,1.83745582 L5.37102473,1.83745582 C5.22968197,1.83745582 5.08833922,1.69611305 5.08833922,1.55477031 C5.08833922,1.41342757 5.1590106,1.27208481 5.37102473,1.27208481 Z M7.0671378,18.5865725 C6.36042403,18.5865725 5.795053,18.0212014 5.795053,17.3144876 C5.795053,16.6077739 6.36042403,16.0424028 7.0671378,16.0424028 C7.77385158,16.0424028 8.33922261,16.6077739 8.33922261,17.3144876 C8.33922261,18.0212014 7.77385158,18.5865725 7.0671378,18.5865725 Z" id="形状" fill="#000000" fill-rule="nonzero"></path>
                        </g>
                    </g>
                </g>
            </g>
        </g>
    </g>
</svg>