<?xml version="1.0" encoding="UTF-8"?>
<svg width="20px" height="20px" viewBox="0 0 20 20" version="1.1" xmlns="http://www.w3.org/2000/svg" xmlns:xlink="http://www.w3.org/1999/xlink">
    <title>编组</title>
    <defs>
        <filter color-interpolation-filters="auto" id="filter-1">
            <feColorMatrix in="SourceGraphic" type="matrix" values="0 0 0 0 0.847000 0 0 0 0 0.847000 0 0 0 0 0.847000 0 0 0 1.000000 0"></feColorMatrix>
        </filter>
    </defs>
    <g id="页面-1" stroke="none" stroke-width="1" fill="none" fill-rule="evenodd">
        <g id="画板" transform="translate(-1174.000000, -569.000000)">
            <g id="编组" transform="translate(1160.000000, 320.000000)" filter="url(#filter-1)">
                <g transform="translate(14.000000, 249.000000)">
                    <rect id="矩形" x="0" y="0" width="20" height="20"></rect>
                    <path d="M18.9563226,4.24112379 C18.9365564,3.62800319 18.4220748,3.04875262 17.8133949,2.94403724 C17.8133949,2.94403724 15.453602,2.57603623 14.1294509,2.11126057 C12.4762467,1.53098969 10.8402225,0.255440652 10.8402225,0.255440652 C10.329946,-0.103954213 9.54726111,-0.0816625638 9.07399828,0.306855661 C9.07399828,0.306855661 7.91582434,1.45954546 5.75481711,2.13239884 C3.75834776,2.92378622 2.16268789,3.00481252 2.16268789,3.00481252 C1.5605292,3.08222339 1.04215729,3.6305318 1.0304865,4.24351931 C1.0304865,4.24351931 0.94939814,7.39487311 1.05171429,10.1606366 C1.09036956,15.108499 7.02877697,20 10.0296087,20 C12.9833975,20 18.0880294,16.5920591 18.8909751,10.2325688 C19.089401,6.45693744 18.9563226,4.24112379 18.9563226,4.24112379 Z M14.3487673,8.58174346 L9.24312352,13.6792151 C9.02558363,13.8963647 8.6564809,13.921429 8.40633476,13.7252623 L5.74013305,11.6354132 C5.25031973,11.2515086 5.19922912,10.5833132 5.63266736,10.1361268 C6.06309233,9.69200147 6.80224226,9.63326681 7.30192739,10.0190124 L8.53961561,10.9745374 L12.793157,7.02181491 C13.2362196,6.61007344 13.9406046,6.62171834 14.3730983,7.02886838 C14.3669144,7.0225025 14.3652054,7.01382982 14.3588191,7.00753048 L14.3948658,7.04315279 C14.3884795,7.03685345 14.3795521,7.03496809 14.3730984,7.02886838 C14.7890192,7.46001802 14.78324,8.1479765 14.3487673,8.58174346 Z" id="形状" fill="#000000" fill-rule="nonzero"></path>
                </g>
            </g>
        </g>
    </g>
</svg>